<svg width="523" height="507" viewBox="0 0 523 507" fill="none" xmlns="http://www.w3.org/2000/svg">
<circle cx="484.893" cy="38.1074" r="38.1074" fill="#F0E8C0" fill-opacity="0.2"/>
<circle cx="373.428" cy="38.1074" r="38.1074" fill="#F0E8C0" fill-opacity="0.2"/>
<circle cx="261.964" cy="38.1074" r="38.1074" fill="#F0E8C0" fill-opacity="0.2"/>
<circle cx="150.5" cy="38.1074" r="38.1074" fill="#F0E8C0" fill-opacity="0.2"/>
<circle cx="39.0356" cy="38.1074" r="38.1074" fill="#F0E8C0" fill-opacity="0.2"/>
<circle cx="484.893" cy="145.761" r="38.1074" fill="#F0E8C0" fill-opacity="0.4"/>
<circle cx="373.428" cy="145.761" r="38.1074" fill="#F0E8C0" fill-opacity="0.4"/>
<circle cx="261.964" cy="145.761" r="38.1074" fill="url(#paint0_linear)" fill-opacity="0.4"/>
<circle cx="150.5" cy="145.761" r="38.1074" fill="#F0E8C0" fill-opacity="0.4"/>
<circle cx="39.0356" cy="145.761" r="38.1074" fill="#F0E8C0" fill-opacity="0.4"/>
<circle cx="373.428" cy="253.414" r="38.1074" fill="url(#paint1_linear)" fill-opacity="0.6"/>
<circle cx="484.893" cy="253.414" r="38.1074" fill="#F0E8C0" fill-opacity="0.6"/>
<circle cx="261.964" cy="253.414" r="38.1074" fill="#F0E8C0" fill-opacity="0.6"/>
<circle cx="150.5" cy="253.414" r="38.1074" fill="#F0E8C0" fill-opacity="0.6"/>
<circle cx="39.0356" cy="253.414" r="38.1074" fill="#F0E8C0" fill-opacity="0.6"/>
<circle cx="261.964" cy="361.068" r="38.1074" fill="url(#paint2_linear)" fill-opacity="0.8"/>
<circle cx="484.893" cy="361.068" r="38.1074" fill="#F0E8C0" fill-opacity="0.8"/>
<circle cx="373.428" cy="361.068" r="38.1074" fill="#F0E8C0" fill-opacity="0.8"/>
<circle cx="150.5" cy="361.068" r="38.1074" fill="#F0E8C0" fill-opacity="0.8"/>
<circle cx="39.0356" cy="361.068" r="38.1074" fill="#F0E8C0" fill-opacity="0.8"/>
<circle cx="484.893" cy="468.721" r="38.1074" fill="url(#paint3_linear)"/>
<circle cx="373.428" cy="468.721" r="38.1074" fill="#F0E8C0"/>
<circle cx="261.964" cy="468.721" r="38.1074" fill="#F0E8C0"/>
<circle cx="150.5" cy="468.721" r="38.1074" fill="#F0E8C0"/>
<circle cx="39.0356" cy="468.721" r="38.1074" fill="#F0E8C0"/>
<defs>
<linearGradient id="paint0_linear" x1="234" y1="169.347" x2="291.5" y2="117.847" gradientUnits="userSpaceOnUse">
<stop stop-color="#CE9EE4"/>
<stop offset="1" stop-color="#9827DE"/>
</linearGradient>
<linearGradient id="paint1_linear" x1="348.5" y1="280.347" x2="388" y2="244.347" gradientUnits="userSpaceOnUse">
<stop stop-color="#9EE4D4"/>
<stop offset="1" stop-color="#51E9C4"/>
</linearGradient>
<linearGradient id="paint2_linear" x1="291" y1="336.347" x2="238.5" y2="387.847" gradientUnits="userSpaceOnUse">
<stop stop-color="#FF4593"/>
<stop offset="1" stop-color="#FF9BC5"/>
</linearGradient>
<linearGradient id="paint3_linear" x1="458" y1="498.347" x2="523" y2="430.347" gradientUnits="userSpaceOnUse">
<stop stop-color="#77DAFA"/>
<stop offset="1" stop-color="#77A3FA"/>
</linearGradient>
</defs>
</svg>
