<svg width="634" height="737" viewBox="0 0 634 737" fill="none" xmlns="http://www.w3.org/2000/svg">
<circle cx="594.893" cy="268.107" r="38.1074" fill="#F0E8C0" fill-opacity="0.4"/>
<circle cx="483.428" cy="268.107" r="38.1074" fill="#F0E8C0" fill-opacity="0.4"/>
<circle cx="371.964" cy="268.107" r="38.1074" fill="#F0E8C0" fill-opacity="0.4"/>
<circle cx="260.5" cy="268.107" r="38.1074" fill="#F0E8C0" fill-opacity="0.4"/>
<circle cx="149.036" cy="268.107" r="38.1074" fill="#F0E8C0" fill-opacity="0.4"/>
<circle cx="594.964" cy="161.107" r="38.1074" fill="#F0E8C0" fill-opacity="0.3"/>
<circle cx="483.5" cy="161.107" r="38.1074" fill="#F0E8C0" fill-opacity="0.3"/>
<circle cx="372.036" cy="161.107" r="38.1074" fill="#F0E8C0" fill-opacity="0.3"/>
<circle cx="260.572" cy="161.107" r="38.1074" fill="#F0E8C0" fill-opacity="0.3"/>
<circle cx="149.107" cy="161.107" r="38.1074" fill="#F0E8C0" fill-opacity="0.3"/>
<circle cx="594.964" cy="38.1074" r="38.1074" fill="#F0E8C0" fill-opacity="0.2"/>
<circle cx="483.5" cy="38.1074" r="38.1074" fill="#F0E8C0" fill-opacity="0.2"/>
<circle cx="372.036" cy="38.1074" r="38.1074" fill="#F0E8C0" fill-opacity="0.2"/>
<circle cx="260.572" cy="38.1074" r="38.1074" fill="#F0E8C0" fill-opacity="0.2"/>
<circle cx="149.107" cy="38.1074" r="38.1074" fill="#F0E8C0" fill-opacity="0.2"/>
<circle cx="594.893" cy="375.761" r="38.1074" fill="#F0E8C0" fill-opacity="0.4"/>
<circle cx="483.428" cy="375.761" r="38.1074" fill="#F0E8C0" fill-opacity="0.4"/>
<circle cx="371.964" cy="375.761" r="38.1074" fill="url(#paint0_linear)" fill-opacity="0.4"/>
<circle cx="260.5" cy="375.761" r="38.1074" fill="#F0E8C0" fill-opacity="0.4"/>
<circle cx="149.036" cy="375.761" r="38.1074" fill="#F0E8C0" fill-opacity="0.4"/>
<circle cx="483.428" cy="483.414" r="38.1074" fill="url(#paint1_linear)" fill-opacity="0.6"/>
<circle cx="594.893" cy="483.414" r="38.1074" fill="#F0E8C0" fill-opacity="0.6"/>
<circle cx="371.964" cy="483.414" r="38.1074" fill="#F0E8C0" fill-opacity="0.6"/>
<circle cx="260.5" cy="483.414" r="38.1074" fill="#F0E8C0" fill-opacity="0.6"/>
<circle cx="149.036" cy="483.414" r="38.1074" fill="#F0E8C0" fill-opacity="0.6"/>
<circle cx="371.964" cy="591.068" r="38.1074" fill="url(#paint2_linear)" fill-opacity="0.8"/>
<circle cx="594.893" cy="591.068" r="38.1074" fill="#F0E8C0" fill-opacity="0.8"/>
<circle cx="483.428" cy="591.068" r="38.1074" fill="#F0E8C0" fill-opacity="0.8"/>
<circle cx="260.5" cy="591.068" r="38.1074" fill="#F0E8C0" fill-opacity="0.8"/>
<circle cx="149.036" cy="591.068" r="38.1074" fill="#F0E8C0" fill-opacity="0.8"/>
<circle cx="594.893" cy="698.721" r="38.1074" fill="url(#paint3_linear)"/>
<circle cx="483.428" cy="698.721" r="38.1074" fill="#F0E8C0"/>
<circle cx="371.964" cy="698.721" r="38.1074" fill="#F0E8C0"/>
<circle cx="260.5" cy="698.721" r="38.1074" fill="#F0E8C0"/>
<circle cx="149.036" cy="698.721" r="38.1074" fill="#F0E8C0"/>
<circle cx="38.1074" cy="268.107" r="38.1074" fill="#F0E8C0" fill-opacity="0.4"/>
<circle cx="38.1792" cy="161.107" r="38.1074" fill="#F0E8C0" fill-opacity="0.3"/>
<circle cx="38.1792" cy="38.1074" r="38.1074" fill="#F0E8C0" fill-opacity="0.2"/>
<circle cx="38.1074" cy="375.761" r="38.1074" fill="#F0E8C0" fill-opacity="0.4"/>
<circle cx="38.1074" cy="483.414" r="38.1074" fill="#F0E8C0" fill-opacity="0.6"/>
<circle cx="38.1074" cy="591.068" r="38.1074" fill="#F0E8C0" fill-opacity="0.8"/>
<circle cx="38.1074" cy="698.721" r="38.1074" fill="#F0E8C0"/>
<defs>
<linearGradient id="paint0_linear" x1="344" y1="399.347" x2="401.5" y2="347.847" gradientUnits="userSpaceOnUse">
<stop stop-color="#CE9EE4"/>
<stop offset="1" stop-color="#9827DE"/>
</linearGradient>
<linearGradient id="paint1_linear" x1="458.5" y1="510.347" x2="498" y2="474.347" gradientUnits="userSpaceOnUse">
<stop stop-color="#9EE4D4"/>
<stop offset="1" stop-color="#51E9C4"/>
</linearGradient>
<linearGradient id="paint2_linear" x1="401" y1="566.347" x2="348.5" y2="617.847" gradientUnits="userSpaceOnUse">
<stop stop-color="#FF4593"/>
<stop offset="1" stop-color="#FF9BC5"/>
</linearGradient>
<linearGradient id="paint3_linear" x1="568" y1="728.347" x2="633" y2="660.347" gradientUnits="userSpaceOnUse">
<stop stop-color="#77DAFA"/>
<stop offset="1" stop-color="#77A3FA"/>
</linearGradient>
</defs>
</svg>
