<svg width="411" height="400" viewBox="0 0 411 400" fill="none" xmlns="http://www.w3.org/2000/svg">
<circle cx="372.893" cy="38.7609" r="38.1074" fill="#F0E8C0"/>
<circle cx="261.428" cy="38.7609" r="38.1074" fill="#F0E8C0"/>
<circle cx="149.964" cy="38.7609" r="38.1074" fill="url(#paint0_linear)"/>
<circle cx="38.5" cy="38.7609" r="38.1074" fill="#F0E8C0"/>
<circle cx="261.428" cy="146.414" r="38.1074" fill="url(#paint1_linear)"/>
<circle cx="372.893" cy="146.414" r="38.1074" fill="#F0E8C0"/>
<circle cx="149.964" cy="146.414" r="38.1074" fill="#F0E8C0"/>
<circle cx="38.5" cy="146.414" r="38.1074" fill="#F0E8C0"/>
<circle cx="149.964" cy="254.068" r="38.1074" fill="url(#paint2_linear)"/>
<circle cx="372.893" cy="254.068" r="38.1074" fill="#F0E8C0"/>
<circle cx="261.428" cy="254.068" r="38.1074" fill="#F0E8C0"/>
<circle cx="38.5" cy="254.068" r="38.1074" fill="#F0E8C0"/>
<circle cx="372.893" cy="361.721" r="38.1074" fill="url(#paint3_linear)"/>
<circle cx="261.428" cy="361.721" r="38.1074" fill="#F0E8C0"/>
<circle cx="149.964" cy="361.721" r="38.1074" fill="#F0E8C0"/>
<circle cx="38.5" cy="361.721" r="38.1074" fill="#F0E8C0"/>
<defs>
<linearGradient id="paint0_linear" x1="122" y1="62.3465" x2="179.5" y2="10.8465" gradientUnits="userSpaceOnUse">
<stop stop-color="#CE9EE4"/>
<stop offset="1" stop-color="#9827DE"/>
</linearGradient>
<linearGradient id="paint1_linear" x1="236.5" y1="173.347" x2="276" y2="137.347" gradientUnits="userSpaceOnUse">
<stop stop-color="#9EE4D4"/>
<stop offset="1" stop-color="#51E9C4"/>
</linearGradient>
<linearGradient id="paint2_linear" x1="179" y1="229.347" x2="126.5" y2="280.847" gradientUnits="userSpaceOnUse">
<stop stop-color="#FF4593"/>
<stop offset="1" stop-color="#FF9BC5"/>
</linearGradient>
<linearGradient id="paint3_linear" x1="346" y1="391.347" x2="411" y2="323.347" gradientUnits="userSpaceOnUse">
<stop stop-color="#77DAFA"/>
<stop offset="1" stop-color="#77A3FA"/>
</linearGradient>
</defs>
</svg>
